# xmcd CD database file
#
# Track frame offsets:
#	150
#	3498
#	16243
#	32626
#	46301
#	61562
#	79606
#	92939
#	105214
#	112015
#	113041
#	127931
#	140628
#	151225
#	165755
#	180175
#	195811
#	198421
#	213216
#	226662
#	235834
#	239862
#	253447
#	254500
#	255596
#	256699
#
# Disc length: 3634 seconds
#
# Revision: 14
# Processed by: cddbd v1.5.2PL0 Copyright (c) Steve Scherf et al.
# Submitted via: CDex 1.70beta3
#
DISCID=410e301a
DTITLE=光田康典 - CHRONO CROSS Original Soundtrack [Disc 2]
DYEAR=1999
DGENRE=Game
TTITLE0=夢のはじまり
TTITLE1=次元の狭間
TTITLE2=テルミナ　ホーム
TTITLE3=龍の騎士
TTITLE4=航海　ホーム・ワールド
TTITLE5=ガルドーブ　ホーム
TTITLE6=マブーレ　ホーム
TTITLE7=ゼルベス
TTITLE8=天晴驚愕大奇術団
TTITLE9=まどろみ
TTITLE10=クロノマンティーク
TTITLE11=窮地
TTITLE12=楽天
TTITLE13=亡者の島
TTITLE14=死海・滅びの塔
TTITLE15=運命に囚われし者たち
TTITLE16=あらかじめ失われし、ともしび
TTITLE17=土龍の島
TTITLE18=世界のへそ
TTITLE19=疾風
TTITLE20=勝利～夏の呼び声～
TTITLE21=マブーレ　アナザー
TTITLE22=妖精のくれた魔法
TTITLE23=エチュード1
TTITLE24=エチュード2
TTITLE25=MAGICAL DREAMERS ～風と星と波と～
EXTD=YEAR: 1999
EXTT0=
EXTT1=
EXTT2=
EXTT3=
EXTT4=
EXTT5=
EXTT6=
EXTT7=
EXTT8=
EXTT9=
EXTT10=
EXTT11=
EXTT12=
EXTT13=
EXTT14=
EXTT15=
EXTT16=
EXTT17=
EXTT18=
EXTT19=
EXTT20=
EXTT21=
EXTT22=
EXTT23=
EXTT24=
EXTT25=
PLAYORDER=
